<?xml version="1.0" standalone="no"?>
<!DOCTYPE svg PUBLIC "-//W3C//DTD SVG 1.1//EN"
"http://www.w3.org/Graphics/SVG/1.1/DTD/svg11.dtd">
<svg height="600" version="1.1" width="800" xmlns="http://www.w3.org/2000/svg"><g><rect fill="#f9f9f9" height="600" width="800" x="0" y="0" /><g transform="translate(40 40)"><g transform="translate(32 0)"><text fill="#333" font-family="Monaco" font-size="16" x="0" y="0">Columns</text></g><g transform="translate(0 20)"><g transform="translate(32 0)"><g class="axis bottom"><g class="tick"><line stroke="#eee" stroke-width="1" x1="34.4" x2="34.4" y1="0" y2="482.0" /><text dy="1em" fill="#9c9c9c" font-family="Monaco" text-anchor="middle" x="34.4" y="486.0">0.00,0.10</text></g><g class="tick"><line stroke="#eee" stroke-width="1" x1="103.2" x2="103.2" y1="0" y2="482.0" /><text dy="1em" fill="#9c9c9c" font-family="Monaco" text-anchor="middle" x="103.2" y="486.0">0.10,0.20</text></g><g class="tick"><line stroke="#eee" stroke-width="1" x1="172.0" x2="172.0" y1="0" y2="482.0" /><text dy="1em" fill="#9c9c9c" font-family="Monaco" text-anchor="middle" x="172.0" y="486.0">0.20,0.30</text></g><g class="tick"><line stroke="#eee" stroke-width="1" x1="240.8" x2="240.8" y1="0" y2="482.0" /><text dy="1em" fill="#9c9c9c" font-family="Monaco" text-anchor="middle" x="240.8" y="486.0">0.30,0.40</text></g><g class="tick"><line stroke="#eee" stroke-width="1" x1="309.6" x2="309.6" y1="0" y2="482.0" /><text dy="1em" fill="#9c9c9c" font-family="Monaco" text-anchor="middle" x="309.6" y="486.0">0.40,0.50</text></g><g class="tick"><line stroke="#eee" stroke-width="1" x1="378.4" x2="378.4" y1="0" y2="482.0" /><text dy="1em" fill="#9c9c9c" font-family="Monaco" text-anchor="middle" x="378.4" y="486.0">0.50,0.60</text></g><g class="tick"><line stroke="#eee" stroke-width="1" x1="447.2" x2="447.2" y1="0" y2="482.0" /><text dy="1em" fill="#9c9c9c" font-family="Monaco" text-anchor="middle" x="447.2" y="486.0">0.60,0.70</text></g><g class="tick"><line stroke="#eee" stroke-width="1" x1="516.0" x2="516.0" y1="0" y2="482.0" /><text dy="1em" fill="#9c9c9c" font-family="Monaco" text-anchor="middle" x="516.0" y="486.0">0.70,0.80</text></g><g class="tick"><line stroke="#eee" stroke-width="1" x1="584.8" x2="584.8" y1="0" y2="482.0" /><text dy="1em" fill="#9c9c9c" font-family="Monaco" text-anchor="middle" x="584.8" y="486.0">0.80,0.90</text></g><g class="tick"><line stroke="#eee" stroke-width="1" x1="653.6" x2="653.6" y1="0" y2="482.0" /><text dy="1em" fill="#9c9c9c" font-family="Monaco" text-anchor="middle" x="653.6" y="486.0">0.90,1.00</text></g></g><g class="axis left"><g class="tick"><line stroke="#eee" stroke-width="1" x1="-4" x2="688.0" y1="318.6666666666666666666666667" y2="318.6666666666666666666666667" /><text dy="0.32em" fill="#9c9c9c" font-family="Monaco" text-anchor="end" x="-8" y="318.6666666666666666666666667">0.1</text></g><g class="tick"><line stroke="#eee" stroke-width="1" x1="-4" x2="688.0" y1="159.3333333333333333333333333" y2="159.3333333333333333333333333" /><text dy="0.32em" fill="#9c9c9c" font-family="Monaco" text-anchor="end" x="-8" y="159.3333333333333333333333333">0.2</text></g><g class="tick"><line stroke="#eee" stroke-width="1" x1="-4" x2="688.0" y1="0" y2="0" /><text dy="0.32em" fill="#9c9c9c" font-family="Monaco" text-anchor="end" x="-8" y="0">0.3</text></g><g class="tick"><line stroke="#a8a8a8" stroke-width="1" x1="-4" x2="688.0" y1="478" y2="478" /><text dy="0.32em" fill="#9c9c9c" font-family="Monaco" text-anchor="end" x="-8" y="478">0</text></g></g><g><g class="series columns"><rect fill="#e41a1c" height="318.6666666666666843562201924" width="61.92" x="3.44" y="159.3333333333333156437798076" /><rect fill="#e41a1c" height="238.9999999999999911552232372" width="61.92" x="72.24" y="239.0000000000000088447767628" /><rect fill="#e41a1c" height="254.9333333333333386401993911" width="61.92" x="141.04" y="223.0666666666666613598006089" /><rect fill="#e41a1c" height="175.2666666666666675511443429" width="61.92" x="209.84" y="302.7333333333333324488556571" /><rect fill="#e41a1c" height="63.7333333333333346600498478" width="61.92" x="278.64" y="414.2666666666666653399501522" /><rect fill="#e41a1c" height="111.5333333333333439470654487" width="61.92" x="347.44" y="366.4666666666666560529345513" /><rect fill="#e41a1c" height="175.2666666666666675511443429" width="61.92" x="416.24" y="302.7333333333333324488556571" /><rect fill="#e41a1c" height="79.6666666666666710890550481" width="61.92" x="485.04" y="398.3333333333333289109449519" /><rect fill="#e41a1c" height="79.6666666666666710890550481" width="61.92" x="553.84" y="398.3333333333333289109449519" /><rect fill="#e41a1c" height="95.5999999999999964620892949" width="61.92" x="622.64" y="382.4000000000000035379107051" /></g></g></g></g></g></g></svg>